<svg xmlns="http://www.w3.org/2000/svg" viewBox="0 0 96 96" role="img" aria-labelledby="logo-title logo-desc">
  <title id="logo-title">獅子偵探標誌</title>
  <desc id="logo-desc">戴著偵探帽、穿著風衣的可愛獅子，手持放大鏡，藍金色圓角徽章，無文字。</desc>
  <defs>
    <linearGradient id="badge" x1="0%" y1="0%" x2="80%" y2="100%"><stop stop-color="#1756ac"/><stop offset="1" stop-color="#092653"/></linearGradient>
    <linearGradient id="gold" x1="0%" y1="0%" x2="60%" y2="100%"><stop stop-color="#fff1ab"/><stop offset=".5" stop-color="#ffd268"/><stop offset="1" stop-color="#d58b23"/></linearGradient>
    <linearGradient id="mane" x1="0%" y1="0%" x2="80%" y2="100%"><stop stop-color="#f9b13b"/><stop offset=".5" stop-color="#d97918"/><stop offset="1" stop-color="#984319"/></linearGradient>
    <linearGradient id="face" x1="0%" y1="0%" x2="70%" y2="100%"><stop stop-color="#ffe49a"/><stop offset="1" stop-color="#f4b640"/></linearGradient>
    <linearGradient id="hat" x1="0%" y1="0%" x2="80%" y2="100%"><stop stop-color="#f9d487"/><stop offset=".6" stop-color="#ce903e"/><stop offset="1" stop-color="#956027"/></linearGradient>
    <linearGradient id="glass" x1="0%" y1="0%" x2="80%" y2="100%"><stop stop-color="#d6fbff" stop-opacity=".55"/><stop offset=".5" stop-color="#2eaee9" stop-opacity=".12"/><stop offset="1" stop-color="#80e3ff" stop-opacity=".45"/></linearGradient>
  </defs>
  <g stroke-linecap="round" stroke-linejoin="round">
  <rect x="2" y="2" width="92" height="92" rx="25" fill="url(#badge)" stroke="#eed48a" stroke-width="2"/>
  <circle cx="49" cy="51" r="36" fill="#092b65" stroke="#edc563" stroke-width="1.4"/>
  <!-- Mane silhouette -->
  <path d="M28 32C21 33 18 37 17 41Q20 41 23 39C18 44 16 49 16 53Q19 52 22 50C18 57 18 64 21 68Q23 65 26 63Q24 71 31 75Q32 71 35 70Q40 78 48 75Q59 79 67 72Q73 74 77 70Q75 66 75 62Q79 63 81 60Q77 57 76 52Q80 53 82 50Q76 47 75 42Q75 34 67 31Z" fill="url(#mane)" stroke="#4a2818" stroke-width="2.2" stroke-linejoin="round"/>
  <!-- Ears -->
  <path d="M26 38C13 35 15 20 24 20Q33 20 36 31Z" fill="url(#face)" stroke="#4a2818" stroke-width="2"/>
  <path d="M25 34Q19 30 23 26Q28 23 31 31Z" fill="#da8760"/>
  <path d="M66 34Q75 25 80 33Q85 44 74 48Z" fill="url(#face)" stroke="#4a2818" stroke-width="2"/>
  <path d="M72 37Q78 32 78 39Q77 43 73 44Z" fill="#da8760"/>
  <!-- Coat and collar -->
  <path d="M29 70Q20 72 19 86Q46 92 77 86Q78 75 67 71L51 68Z" fill="url(#hat)" stroke="#4a2818" stroke-width="2" stroke-linejoin="round"/>
  <path d="M39 71L49 88L59 72L50 75Z" fill="#eef5ff" stroke="#4a2818" stroke-width="1.5"/>
  <path d="M49 77L53 80L51 83L54 89H46L49 83L46 80Z" fill="#145eb1" stroke="#102d58" stroke-width="1.3"/>
  <path d="M33 73L29 78L37 81L33 84L43 88M65 74L69 79L61 82L65 85L57 88" fill="none" stroke="#704520" stroke-width="2" stroke-linejoin="round"/>
  <!-- Face -->
  <path d="M28 39C35 33 43 33 50 36C60 34 68 40 70 48C72 52 72 56 72 59L69 58C69 65 64 70 58 72L51 76L43 73C32 73 25 67 24 59C23 52 24 44 28 39Z" fill="url(#face)" stroke="#874618" stroke-width="1.7" stroke-linejoin="round"/>
  <path d="M25 40Q32 33 42 35L40 32C49 31 55 36 57 42Q50 37 45 39Q35 36 25 40Z" fill="url(#mane)"/>
  <path d="M58 43Q66 38 72 45Q65 42 63 46Z" fill="#d98121"/>
  <!-- Eyes -->
  <ellipse cx="37" cy="51" rx="7.6" ry="9.4" fill="#fff9e9" transform="rotate(-8 37 51)"/>
  <ellipse cx="39" cy="52" rx="5.5" ry="7.4" fill="#442715"/>
  <ellipse cx="40" cy="55" rx="3.8" ry="3.6" fill="#dca125"/><ellipse cx="40" cy="51" rx="3.4" ry="5" fill="#201b19"/>
  <circle cx="38" cy="48" r="2.3" fill="#fff"/>
  <ellipse cx="61" cy="53" rx="6.2" ry="8" fill="#fff9e9" transform="rotate(13 61 53)"/>
  <ellipse cx="61" cy="54" rx="4.6" ry="6.4" fill="#442715"/>
  <ellipse cx="61" cy="57" rx="3.4" ry="2.7" fill="#dca125"/><ellipse cx="61" cy="53" rx="3" ry="4.5" fill="#201b19"/>
  <circle cx="59.5" cy="50.5" r="1.8" fill="#fff"/>
  <path d="M57 43Q61 38 65 44" fill="#875019"/>
  <!-- Muzzle and smile -->
  <path d="M36 59C41 57 47 58 51 61C56 58 62 59 65 63C68 68 63 71 58 71L52 74L46 71C39 73 33 70 33 65Q33 61 36 59Z" fill="#fff3d2"/>
  <path d="M44 66Q51 69 59 66C57 70 55 73 51 73C47 73 45 70 44 66Z" fill="#602c21" stroke="#482718" stroke-width="1.2"/>
  <path d="M47 71C49 69 53 69 55 72Q51 74 47 71Z" fill="#ec8875"/>
  <path d="M46 60C47 58 53 59 56 61Q56 62 54 63L51 65L48 62Q46 61 46 60Z" fill="#72442f" stroke="#3b241a" stroke-width="1.5" stroke-linejoin="round"/>
  <path d="M48 59.5L53 60.5" stroke="#d7a37b" stroke-width="1.3" stroke-linecap="round"/>
  <!-- Deerstalker -->
  <path d="M31 26C33 16 41 11 50 11C62 11 70 21 72 34Z" fill="url(#hat)" stroke="#402817" stroke-width="2.2"/>
  <path d="M42 24C44 18 47 14 51 12M60 15C65 20 67 26 66 31" fill="none" stroke="#ffe6a1" stroke-width="2.2"/>
  <path d="M28 26C40 21 54 23 65 29C71 33 76 38 77 41C74 43 61 36 51 32C43 29 34 28 28 26Z" fill="url(#gold)" stroke="#402817" stroke-width="2.2" stroke-linejoin="round"/>
  <path d="M35 25C48 24 63 30 73 38" fill="none" stroke="#fff0b4" stroke-width="1.5" stroke-linecap="round"/>
  <path d="M49 12C45 12 40 10 42 8C44 5 49 8 51 11C51 7 54 5 56 8C58 11 55 12 52 12Z" fill="url(#gold)" stroke="#402817" stroke-width="1.7"/>
  <ellipse cx="51" cy="12" rx="2.4" ry="1.8" fill="#f8d487" stroke="#704520" stroke-width="1.2"/>
  <!-- Magnifying glass handle -->
  <path d="M29 65L19 81" stroke="#152c45" stroke-width="8" stroke-linecap="round"/>
  <path d="M29 65L19 81" stroke="url(#gold)" stroke-width="5" stroke-linecap="round"/>
  <path d="M25 72L21 78" stroke="#15467b" stroke-width="5"/>
  <!-- Clean, circular magnified face area -->
  <circle cx="35" cy="51" r="14.7" fill="url(#face)"/>
  <ellipse cx="37" cy="51" rx="7.6" ry="9.4" fill="#fff9e9"/>
  <ellipse cx="39" cy="52" rx="5.5" ry="7.4" fill="#442715"/>
  <ellipse cx="39" cy="55" rx="3.8" ry="3.6" fill="#dca125"/>
  <ellipse cx="39" cy="51" rx="3.4" ry="5" fill="#201b19"/>
  <circle cx="37" cy="48" r="2.3" fill="#fff"/>
  <!-- Lens retains visible enlarged eye -->
  <circle cx="35" cy="51" r="17" fill="url(#glass)" stroke="#10243a" stroke-width="4.5"/>
  <circle cx="35" cy="51" r="17" fill="none" stroke="url(#gold)" stroke-width="2.8"/>
  <circle cx="35" cy="51" r="14.6" fill="none" stroke="#72d8ff" stroke-width="1.5"/>
  <path d="M23 49Q24 42 31 39" fill="none" stroke="#fff" stroke-width="2.8" stroke-linecap="round"/>
  <path d="M42 39Q47 42 48 47M27 62Q34 67 42 62" fill="none" stroke="#d7faff" stroke-width="1.8" stroke-linecap="round"/>
  <!-- Paws -->
  <path d="M18 70C21 67 26 68 29 72C32 76 29 80 26 80Q23 80 21 77C18 79 15 76 16 73Q16 71 18 70Z" fill="url(#face)" stroke="#674021" stroke-width="1.8"/>
  <path d="M22 72Q27 73 27 77" fill="none" stroke="#d49035" stroke-width="1.3" stroke-linecap="round"/>
  <path d="M60 81C64 78 70 79 73 82C76 86 73 89 68 89H60C55 89 55 85 60 81Z" fill="url(#face)" stroke="#674021" stroke-width="1.8"/>
  <path d="M64 83Q62 85 62 87.5M69 83Q67 85 67 88" fill="none" stroke="#d49035" stroke-width="1.3" stroke-linecap="round"/>
  <path d="M12 48L13.5 53L17 54L13.5 55L12 60L10.5 55L7 54L10.5 53Z" fill="#fff0ac"/>
  <path d="M84 60L85.5 65L89 66L85.5 67L84 72L82.5 67L79 66L82.5 65Z" fill="#fff0ac"/>
  </g>
</svg>
